<svg xmlns="http://www.w3.org/2000/svg" viewBox="0 0 554.68 146.37"><title>Asset 1</title><g id="Layer_2" data-name="Layer 2"><g id="Layer_1-2" data-name="Layer 1"><path d="M55.13,106.16a39.48,39.48,0,0,0,6.38,8.77,34.32,34.32,0,0,1-8,5,38.26,38.26,0,0,1-15.68,3.22,38,38,0,0,1-19.27-5A36.26,36.26,0,0,1,5,104.66,37.33,37.33,0,0,1,0,85.61,37.19,37.19,0,0,1,5,66.49,36.44,36.44,0,0,1,18.52,53.06a38,38,0,0,1,19.27-5,38.27,38.27,0,0,1,15.68,3.23,34.41,34.41,0,0,1,8.11,5,40.22,40.22,0,0,0-6.45,8.86,38.32,38.32,0,0,0-2,4.32,19.43,19.43,0,0,0-5.67-3.64A24.57,24.57,0,0,0,37.79,64a21.06,21.06,0,0,0-10.87,2.78,19.45,19.45,0,0,0-7.35,7.57A23.09,23.09,0,0,0,17,85.61a23.22,23.22,0,0,0,2.62,11.18,19.32,19.32,0,0,0,7.35,7.65,21.05,21.05,0,0,0,10.87,2.77,24.57,24.57,0,0,0,9.68-1.87,19.41,19.41,0,0,0,5.62-3.6A37.61,37.61,0,0,0,55.13,106.16Z"/><path d="M109.9,57.63a27,27,0,0,0-7.43-6,29.74,29.74,0,0,0-14.63-3.53,32.06,32.06,0,0,0-17.62,5,36,36,0,0,0-12.45,13.5,39.59,39.59,0,0,0-4.58,19.12,39.32,39.32,0,0,0,4.58,19,35.38,35.38,0,0,0,12.45,13.42,32.42,32.42,0,0,0,17.62,5,30.26,30.26,0,0,0,14.7-3.52,26.74,26.74,0,0,0,7.36-5.87v7.89h16.5v-72H109.9Zm-4.58,43.73q-5.62,6.15-14.78,6.15A20,20,0,0,1,80,104.74,19.54,19.54,0,0,1,72.77,97a24,24,0,0,1-2.62-11.4,24,24,0,0,1,2.62-11.4A19.51,19.51,0,0,1,80,66.49a20,20,0,0,1,10.57-2.78,20.29,20.29,0,0,1,10.73,2.78,19.07,19.07,0,0,1,7.13,7.72,24.67,24.67,0,0,1,2.54,11.4Q110.94,95.21,105.32,101.36Z"/><path d="M173,49.15V67.21l-.24.25a11.37,11.37,0,0,0-4.35-3,17.25,17.25,0,0,0-16.95,3.45q-4.5,4.35-4.5,13.65v40.05h-16.5v-72h16.5v7.56c.13-.19.24-.4.38-.58q6.08-8.48,18.37-8.48A24.33,24.33,0,0,1,173,49.15Z"/><path d="M234.66,106a38.88,38.88,0,0,1-4.29-10.66c-.23.56-.49,1.11-.77,1.64a19.54,19.54,0,0,1-7.2,7.73,20,20,0,0,1-10.57,2.77,20.33,20.33,0,0,1-10.65-2.77A18.73,18.73,0,0,1,194,97a24.42,24.42,0,0,1-2.55-11.4A24.42,24.42,0,0,1,194,74.21a18.7,18.7,0,0,1,7.2-7.72,20.33,20.33,0,0,1,10.65-2.78,20,20,0,0,1,10.57,2.78,19.51,19.51,0,0,1,7.2,7.72,16.88,16.88,0,0,1,.73,1.55A37.65,37.65,0,0,1,234.68,65a40.62,40.62,0,0,1,4.43-6.08,35.41,35.41,0,0,0-7-5.8,32.06,32.06,0,0,0-17.62-5A29.81,29.81,0,0,0,200,51.64a26.79,26.79,0,0,0-7.5,6v-44H176v108h16.5v-7.89a26.55,26.55,0,0,0,7.35,5.87,30.12,30.12,0,0,0,14.7,3.52,32.42,32.42,0,0,0,17.62-5,34.8,34.8,0,0,0,7-5.83A41,41,0,0,1,234.66,106Z"/><path d="M302.65,66.49a37.18,37.18,0,0,0-13.57-13.43,37.64,37.64,0,0,0-19.2-5,36.9,36.9,0,0,0-19,5,38.27,38.27,0,0,0-13.58,13.42,36.1,36.1,0,0,0-5,18.9v.15a36.79,36.79,0,0,0,5,18.9,38.16,38.16,0,0,0,3.91,5.5,37.47,37.47,0,0,0,9.67,8.08,38.94,38.94,0,0,0,38.25,0,37.59,37.59,0,0,0,13.57-13.58,36.9,36.9,0,0,0,5-19.05A36.48,36.48,0,0,0,302.65,66.49ZM288.1,96.71a19.21,19.21,0,0,1-7.35,7.73,21.08,21.08,0,0,1-10.87,2.77,20.79,20.79,0,0,1-10.73-2.77,19.21,19.21,0,0,1-7.35-7.73,23.48,23.48,0,0,1-2.62-10.95v-.3a22.76,22.76,0,0,1,2.62-11.1,19.45,19.45,0,0,1,7.35-7.57,22.23,22.23,0,0,1,21.53,0A20.24,20.24,0,0,1,288,74.36a22.26,22.26,0,0,1,2.7,11.1A23.64,23.64,0,0,1,288.1,96.71Z"/><path d="M363,52.24a25.7,25.7,0,0,0-14.4-4.13,28.18,28.18,0,0,0-14.33,3.68,26.32,26.32,0,0,0-7.12,5.94V49.61h-16.5v72h16.5V80.06a17.2,17.2,0,0,1,2.1-8.55,15,15,0,0,1,5.85-5.85,17.2,17.2,0,0,1,8.55-2.1,15.79,15.79,0,0,1,11.77,4.65A16.2,16.2,0,0,1,360,80.06v41.55h16.5V76.46a27.71,27.71,0,0,0-3.6-13.57A29.72,29.72,0,0,0,363,52.24Z"/><polygon points="413.18 49.7 413.18 49.61 396.68 49.61 396.68 49.7 379.43 49.7 379.43 64.7 434.93 64.7 434.93 49.7 413.18 49.7"/><rect x="440.04" y="49.61" width="16.5" height="72"/><path d="M448.29,23.61a9.34,9.34,0,0,0-7,2.85,9.71,9.71,0,0,0-2.77,7,9.71,9.71,0,0,0,2.77,7.05,10.06,10.06,0,0,0,14,0,9.86,9.86,0,0,0,2.7-7.05,9.86,9.86,0,0,0-2.7-7A9.27,9.27,0,0,0,448.29,23.61Z"/><rect x="461.99" y="13.61" width="16.5" height="108"/><path d="M550.26,65.51a33.12,33.12,0,0,0-12.15-12.75,33.8,33.8,0,0,0-17.77-4.65,36.79,36.79,0,0,0-32.25,18.38,37.1,37.1,0,0,0-5,19.12,37.18,37.18,0,0,0,5,19.2,36.28,36.28,0,0,0,13.65,13.43,38.76,38.76,0,0,0,19.42,4.87,40.64,40.64,0,0,0,15.9-3.15,33.68,33.68,0,0,0,12.75-9.3L539.38,100a21.4,21.4,0,0,1-8,5.7,26.68,26.68,0,0,1-10.27,2,22.93,22.93,0,0,1-11.41-2.77A19.11,19.11,0,0,1,502,97a22.54,22.54,0,0,1-1.95-5.25h53.7c.31-1.5.53-2.87.68-4.12a30.89,30.89,0,0,0,.22-3.68A37.85,37.85,0,0,0,550.26,65.51Zm-48.38,8A18.43,18.43,0,0,1,509.09,66,21.39,21.39,0,0,1,520,63.26a19.86,19.86,0,0,1,10.13,2.4,16.08,16.08,0,0,1,6.37,6.9,23,23,0,0,1,1.9,5.7h-38.3A21.57,21.57,0,0,1,501.88,73.54Z"/><path d="M450.35,2.25A23.38,23.38,0,0,0,439.45,0a34.05,34.05,0,0,0-15.64,3.6,33,33,0,0,0-11.76,9.9,32.51,32.51,0,0,0-5.95,14.55l-1.39,8.82h-.13l-.1.63-2.36,15-10.36,66c-.05.27-.1.54-.14.81a13.43,13.43,0,0,1-14.28,11.64,11.1,11.1,0,0,1-5.24-1,11.9,11.9,0,0,1-3.44-2.85l-12.33,10.65a24.62,24.62,0,0,0,7.68,6.45,23.46,23.46,0,0,0,10.9,2.25,34.06,34.06,0,0,0,15.65-3.6,33.05,33.05,0,0,0,11.75-9.9,32.61,32.61,0,0,0,6-14.55l1.39-8.82h.13l.09-.63,2.36-15,10.37-66a14.69,14.69,0,0,1,4.67-9.22A14.38,14.38,0,0,1,437,15.45a11.12,11.12,0,0,1,5.23,1.05,11.94,11.94,0,0,1,3.45,2.85L458,8.7A24.54,24.54,0,0,0,450.35,2.25Z"/></g></g></svg>